<svg width="431" height="441" viewBox="0 0 431 441" fill="none" xmlns="http://www.w3.org/2000/svg">
<g filter="url(#filter0_bdd_102_42)">
<mask id="path-1-inside-1_102_42" fill="white">
<path fill-rule="evenodd" clip-rule="evenodd" d="M246.772 53.1933C246.772 44.909 240.057 38.1933 231.772 38.1933C223.488 38.1933 216.772 44.909 216.772 53.1933V169.099L139.153 87.2643C133.452 81.2537 124.209 81.2537 118.508 87.2643C112.807 93.275 112.807 103.02 118.508 109.031L196.899 191.679H86.1933C77.909 191.679 71.1933 198.395 71.1933 206.679C71.1933 214.964 77.909 221.679 86.1933 221.679H196.899L118.509 304.327C112.808 310.337 112.808 320.082 118.509 326.093C124.21 332.104 133.453 332.104 139.154 326.093L216.772 244.259V360.166C216.772 368.45 223.488 375.166 231.772 375.166C240.057 375.166 246.772 368.45 246.772 360.166V244.261L324.389 326.093C330.09 332.104 339.333 332.104 345.034 326.093C350.735 320.082 350.735 310.337 345.034 304.327L266.645 221.679H377.353C385.637 221.679 392.353 214.964 392.353 206.679C392.353 198.395 385.637 191.679 377.353 191.679H266.644L345.035 109.031C350.736 103.02 350.736 93.275 345.035 87.2643C339.334 81.2537 330.091 81.2537 324.39 87.2643L246.772 169.097V53.1933Z"/>
</mask>
<path fill-rule="evenodd" clip-rule="evenodd" d="M246.772 53.1933C246.772 44.909 240.057 38.1933 231.772 38.1933C223.488 38.1933 216.772 44.909 216.772 53.1933V169.099L139.153 87.2643C133.452 81.2537 124.209 81.2537 118.508 87.2643C112.807 93.275 112.807 103.02 118.508 109.031L196.899 191.679H86.1933C77.909 191.679 71.1933 198.395 71.1933 206.679C71.1933 214.964 77.909 221.679 86.1933 221.679H196.899L118.509 304.327C112.808 310.337 112.808 320.082 118.509 326.093C124.21 332.104 133.453 332.104 139.154 326.093L216.772 244.259V360.166C216.772 368.45 223.488 375.166 231.772 375.166C240.057 375.166 246.772 368.45 246.772 360.166V244.261L324.389 326.093C330.09 332.104 339.333 332.104 345.034 326.093C350.735 320.082 350.735 310.337 345.034 304.327L266.645 221.679H377.353C385.637 221.679 392.353 214.964 392.353 206.679C392.353 198.395 385.637 191.679 377.353 191.679H266.644L345.035 109.031C350.736 103.02 350.736 93.275 345.035 87.2643C339.334 81.2537 330.091 81.2537 324.39 87.2643L246.772 169.097V53.1933Z" fill="url(#paint0_linear_102_42)"/>
<path d="M231.772 38.1933V36.1933V38.1933ZM216.772 169.099L215.321 170.475C215.884 171.069 216.753 171.259 217.513 170.956C218.273 170.653 218.772 169.917 218.772 169.099H216.772ZM139.153 87.2643L137.702 88.6407L139.153 87.2643ZM118.508 109.031L117.057 110.407L118.508 109.031ZM196.899 191.679V193.679C197.699 193.679 198.421 193.203 198.737 192.469C199.053 191.735 198.901 190.883 198.351 190.303L196.899 191.679ZM196.899 221.679L198.35 223.056C198.9 222.476 199.052 221.624 198.736 220.89C198.42 220.155 197.698 219.679 196.899 219.679V221.679ZM118.509 304.327L119.96 305.703H119.96L118.509 304.327ZM139.154 326.093L140.605 327.469H140.605L139.154 326.093ZM216.772 244.259H218.772C218.772 243.441 218.273 242.705 217.513 242.401C216.753 242.098 215.884 242.289 215.321 242.883L216.772 244.259ZM246.772 244.261L248.223 242.884C247.66 242.29 246.792 242.1 246.031 242.403C245.271 242.706 244.772 243.442 244.772 244.261H246.772ZM324.389 326.093L322.938 327.469L324.389 326.093ZM345.034 304.327L343.583 305.703L345.034 304.327ZM266.645 221.679V219.679C265.845 219.679 265.123 220.155 264.807 220.89C264.491 221.624 264.643 222.476 265.193 223.056L266.645 221.679ZM266.644 191.679L265.192 190.303C264.642 190.883 264.49 191.735 264.806 192.469C265.122 193.203 265.844 193.679 266.644 193.679V191.679ZM345.035 109.031L346.486 110.407L346.486 110.407L345.035 109.031ZM345.035 87.2643L346.486 85.888L346.486 85.888L345.035 87.2643ZM324.39 87.2643L325.841 88.6407L324.39 87.2643ZM246.772 169.097H244.772C244.772 169.916 245.271 170.651 246.031 170.955C246.792 171.258 247.66 171.067 248.223 170.473L246.772 169.097ZM231.772 40.1933C238.952 40.1933 244.772 46.0136 244.772 53.1933H248.772C248.772 43.8044 241.161 36.1933 231.772 36.1933V40.1933ZM218.772 53.1933C218.772 46.0136 224.593 40.1933 231.772 40.1933V36.1933C222.383 36.1933 214.772 43.8044 214.772 53.1933H218.772ZM218.772 169.099V53.1933H214.772V169.099H218.772ZM137.702 88.6407L215.321 170.475L218.223 167.722L140.605 85.888L137.702 88.6407ZM119.959 88.6407C124.872 83.4616 132.79 83.4616 137.702 88.6407L140.605 85.888C134.115 79.0458 123.547 79.0458 117.057 85.888L119.959 88.6407ZM119.959 107.654C114.99 102.415 114.99 93.8797 119.959 88.6407L117.057 85.888C110.624 92.6702 110.624 103.625 117.057 110.407L119.959 107.654ZM198.351 190.303L119.959 107.654L117.057 110.407L195.448 193.056L198.351 190.303ZM86.1933 193.679H196.899V189.679H86.1933V193.679ZM73.1933 206.679C73.1933 199.5 79.0136 193.679 86.1933 193.679V189.679C76.8044 189.679 69.1933 197.29 69.1933 206.679H73.1933ZM86.1933 219.679C79.0136 219.679 73.1933 213.859 73.1933 206.679H69.1933C69.1933 216.068 76.8044 223.679 86.1933 223.679V219.679ZM196.899 219.679H86.1933V223.679H196.899V219.679ZM119.96 305.703L198.35 223.056L195.447 220.303L117.058 302.95L119.96 305.703ZM119.96 324.717C114.991 319.478 114.991 310.942 119.96 305.703L117.058 302.95C110.625 309.732 110.625 320.687 117.058 327.469L119.96 324.717ZM137.703 324.717C132.79 329.896 124.872 329.896 119.96 324.717L117.058 327.469C123.547 334.311 134.115 334.311 140.605 327.469L137.703 324.717ZM215.321 242.883L137.703 324.717L140.605 327.469L218.223 245.635L215.321 242.883ZM218.772 360.166V244.259H214.772V360.166H218.772ZM231.772 373.166C224.593 373.166 218.772 367.345 218.772 360.166H214.772C214.772 369.554 222.383 377.166 231.772 377.166V373.166ZM244.772 360.166C244.772 367.345 238.952 373.166 231.772 373.166V377.166C241.161 377.166 248.772 369.554 248.772 360.166H244.772ZM244.772 244.261V360.166H248.772V244.261H244.772ZM325.84 324.717L248.223 242.884L245.321 245.637L322.938 327.469L325.84 324.717ZM343.583 324.717C338.671 329.896 330.753 329.896 325.84 324.717L322.938 327.469C329.428 334.311 339.996 334.311 346.485 327.469L343.583 324.717ZM343.583 305.703C348.552 310.942 348.552 319.478 343.583 324.717L346.485 327.469C352.918 320.687 352.918 309.732 346.485 302.95L343.583 305.703ZM265.193 223.056L343.583 305.703L346.485 302.95L268.096 220.303L265.193 223.056ZM377.353 219.679H266.645V223.679H377.353V219.679ZM390.353 206.679C390.353 213.859 384.533 219.679 377.353 219.679V223.679C386.742 223.679 394.353 216.068 394.353 206.679H390.353ZM377.353 193.679C384.533 193.679 390.353 199.5 390.353 206.679H394.353C394.353 197.29 386.742 189.679 377.353 189.679V193.679ZM266.644 193.679H377.353V189.679H266.644V193.679ZM343.584 107.654L265.192 190.303L268.095 193.056L346.486 110.407L343.584 107.654ZM343.584 88.6407C348.553 93.8797 348.553 102.415 343.584 107.654L346.486 110.407C352.919 103.625 352.919 92.6702 346.486 85.888L343.584 88.6407ZM325.841 88.6407C330.753 83.4616 338.671 83.4616 343.584 88.6407L346.486 85.888C339.996 79.0458 329.428 79.0458 322.938 85.888L325.841 88.6407ZM248.223 170.473L325.841 88.6407L322.938 85.888L245.321 167.721L248.223 170.473ZM244.772 53.1933V169.097H248.772V53.1933H244.772Z" fill="url(#paint1_linear_102_42)" mask="url(#path-1-inside-1_102_42)"/>
</g>
<defs>
<filter id="filter0_bdd_102_42" x="0.193268" y="0.193359" width="430.16" height="439.972" filterUnits="userSpaceOnUse" color-interpolation-filters="sRGB">
<feFlood flood-opacity="0" result="BackgroundImageFix"/>
<feGaussianBlur in="BackgroundImageFix" stdDeviation="7"/>
<feComposite in2="SourceAlpha" operator="in" result="effect1_backgroundBlur_102_42"/>
<feColorMatrix in="SourceAlpha" type="matrix" values="0 0 0 0 0 0 0 0 0 0 0 0 0 0 0 0 0 0 127 0" result="hardAlpha"/>
<feOffset dx="-21" dy="15"/>
<feGaussianBlur stdDeviation="25"/>
<feComposite in2="hardAlpha" operator="out"/>
<feColorMatrix type="matrix" values="0 0 0 0 0.0344166 0 0 0 0 0 0 0 0 0 0.245833 0 0 0 0.38 0"/>
<feBlend mode="normal" in2="effect1_backgroundBlur_102_42" result="effect2_dropShadow_102_42"/>
<feColorMatrix in="SourceAlpha" type="matrix" values="0 0 0 0 0 0 0 0 0 0 0 0 0 0 0 0 0 0 127 0" result="hardAlpha"/>
<feOffset/>
<feGaussianBlur stdDeviation="19"/>
<feComposite in2="hardAlpha" operator="out"/>
<feColorMatrix type="matrix" values="0 0 0 0 0.1375 0 0 0 0 0.74125 0 0 0 0 1 0 0 0 0.3 0"/>
<feBlend mode="normal" in2="effect2_dropShadow_102_42" result="effect3_dropShadow_102_42"/>
<feBlend mode="normal" in="SourceGraphic" in2="effect3_dropShadow_102_42" result="shape"/>
</filter>
<linearGradient id="paint0_linear_102_42" x1="123.332" y1="301.727" x2="423.693" y2="60.7634" gradientUnits="userSpaceOnUse">
<stop stop-color="#659DF1"/>
<stop offset="1" stop-color="#FAFCFF"/>
</linearGradient>
<linearGradient id="paint1_linear_102_42" x1="231.773" y1="47" x2="231.773" y2="366.359" gradientUnits="userSpaceOnUse">
<stop stop-color="white"/>
<stop offset="1" stop-color="white" stop-opacity="0"/>
</linearGradient>
</defs>
</svg>
