<svg width="525" height="330" viewBox="0 0 525 330" fill="none" xmlns="http://www.w3.org/2000/svg">
<g filter="url(#filter0_bd_102_48)">
<mask id="path-1-inside-1_102_48" fill="white">
<path fill-rule="evenodd" clip-rule="evenodd" d="M223.406 35C215.122 35 207.777 41.6862 207 49.934C206.223 58.1817 212.31 64.8679 220.594 64.8679H340.594C348.878 64.8679 356.223 58.1817 357 49.934C357.777 41.6862 351.69 35 343.406 35H223.406ZM146 89.9341C145.223 81.6863 151.31 75.0001 159.594 75.0001H359.594C367.878 75.0001 375.223 81.6863 376 89.9341C376.777 98.1819 370.69 104.868 362.406 104.868H162.406C154.122 104.868 146.777 98.1819 146 89.9341ZM481 144.934C489.284 144.934 496 138.218 496 129.934C496 121.65 489.284 114.934 481 114.934L221 114.934C212.716 114.934 206 121.65 206 129.934C206 138.218 212.716 144.934 221 144.934L481 144.934ZM71 169.934C71 161.65 77.7157 154.934 86 154.934H346C354.284 154.934 361 161.65 361 169.934C361 178.218 354.284 184.934 346 184.934H86C77.7157 184.934 71 178.218 71 169.934ZM153.406 194.818C145.122 194.818 137.777 201.505 137 209.752C136.223 218 142.31 224.686 150.594 224.686H420.594C428.878 224.686 436.223 218 437 209.752C437.777 201.505 431.69 194.818 423.406 194.818H153.406ZM169.594 234.818C161.31 234.818 155.223 241.505 156 249.752C156.777 258 164.122 264.686 172.406 264.686H372.406C380.69 264.686 386.777 258 386 249.752C385.223 241.505 377.878 234.818 369.594 234.818H169.594Z"/>
</mask>
<path fill-rule="evenodd" clip-rule="evenodd" d="M223.406 35C215.122 35 207.777 41.6862 207 49.934C206.223 58.1817 212.31 64.8679 220.594 64.8679H340.594C348.878 64.8679 356.223 58.1817 357 49.934C357.777 41.6862 351.69 35 343.406 35H223.406ZM146 89.9341C145.223 81.6863 151.31 75.0001 159.594 75.0001H359.594C367.878 75.0001 375.223 81.6863 376 89.9341C376.777 98.1819 370.69 104.868 362.406 104.868H162.406C154.122 104.868 146.777 98.1819 146 89.9341ZM481 144.934C489.284 144.934 496 138.218 496 129.934C496 121.65 489.284 114.934 481 114.934L221 114.934C212.716 114.934 206 121.65 206 129.934C206 138.218 212.716 144.934 221 144.934L481 144.934ZM71 169.934C71 161.65 77.7157 154.934 86 154.934H346C354.284 154.934 361 161.65 361 169.934C361 178.218 354.284 184.934 346 184.934H86C77.7157 184.934 71 178.218 71 169.934ZM153.406 194.818C145.122 194.818 137.777 201.505 137 209.752C136.223 218 142.31 224.686 150.594 224.686H420.594C428.878 224.686 436.223 218 437 209.752C437.777 201.505 431.69 194.818 423.406 194.818H153.406ZM169.594 234.818C161.31 234.818 155.223 241.505 156 249.752C156.777 258 164.122 264.686 172.406 264.686H372.406C380.69 264.686 386.777 258 386 249.752C385.223 241.505 377.878 234.818 369.594 234.818H169.594Z" fill="url(#paint0_linear_102_48)" shape-rendering="crispEdges"/>
<path d="M207 49.934L205.009 49.7465L207 49.934ZM357 49.934L355.009 49.7465L357 49.934ZM481 144.934L481 146.934H481V144.934ZM481 114.934L481 116.934H481V114.934ZM221 114.934L221 112.934H221V114.934ZM221 144.934L221 142.934H221V144.934ZM208.991 50.1214C209.671 42.901 216.154 37 223.406 37V33C214.09 33 205.882 40.4713 205.009 49.7465L208.991 50.1214ZM220.594 62.8679C213.488 62.8679 208.325 57.1958 208.991 50.1214L205.009 49.7465C204.122 59.1677 211.131 66.8679 220.594 66.8679V62.8679ZM340.594 62.8679H220.594V66.8679H340.594V62.8679ZM355.009 49.7465C354.329 56.9669 347.846 62.8679 340.594 62.8679V66.8679C349.91 66.8679 358.118 59.3966 358.991 50.1214L355.009 49.7465ZM343.406 37C350.512 37 355.675 42.6721 355.009 49.7465L358.991 50.1214C359.878 40.7002 352.869 33 343.406 33V37ZM223.406 37H343.406V33H223.406V37ZM159.594 73.0001C150.131 73.0001 143.122 80.7003 144.009 90.1216L147.991 89.7466C147.325 82.6722 152.488 77.0001 159.594 77.0001V73.0001ZM359.594 73.0001H159.594V77.0001H359.594V73.0001ZM377.991 89.7466C377.118 80.4714 368.91 73.0001 359.594 73.0001V77.0001C366.846 77.0001 373.329 82.9012 374.009 90.1216L377.991 89.7466ZM362.406 106.868C371.869 106.868 378.878 99.1678 377.991 89.7466L374.009 90.1216C374.675 97.1959 369.512 102.868 362.406 102.868V106.868ZM162.406 106.868H362.406V102.868H162.406V106.868ZM144.009 90.1216C144.882 99.3968 153.09 106.868 162.406 106.868V102.868C155.154 102.868 148.671 96.967 147.991 89.7466L144.009 90.1216ZM494 129.934C494 137.114 488.18 142.934 481 142.934V146.934C490.389 146.934 498 139.323 498 129.934H494ZM481 116.934C488.18 116.934 494 122.754 494 129.934H498C498 120.545 490.389 112.934 481 112.934V116.934ZM221 116.934L481 116.934L481 112.934L221 112.934L221 116.934ZM208 129.934C208 122.754 213.82 116.934 221 116.934V112.934C211.611 112.934 204 120.545 204 129.934H208ZM221 142.934C213.82 142.934 208 137.114 208 129.934H204C204 139.323 211.611 146.934 221 146.934V142.934ZM481 142.934L221 142.934L221 146.934L481 146.934L481 142.934ZM86 152.934C76.6112 152.934 69 160.545 69 169.934H73C73 162.754 78.8203 156.934 86 156.934V152.934ZM346 152.934H86V156.934H346V152.934ZM363 169.934C363 160.545 355.389 152.934 346 152.934V156.934C353.18 156.934 359 162.754 359 169.934H363ZM346 186.934C355.389 186.934 363 179.323 363 169.934H359C359 177.114 353.18 182.934 346 182.934V186.934ZM86 186.934H346V182.934H86V186.934ZM69 169.934C69 179.323 76.6112 186.934 86 186.934V182.934C78.8203 182.934 73 177.114 73 169.934H69ZM138.991 209.94C139.671 202.719 146.154 196.818 153.406 196.818V192.818C144.09 192.818 135.882 200.29 135.009 209.565L138.991 209.94ZM150.594 222.686C143.488 222.686 138.325 217.014 138.991 209.94L135.009 209.565C134.122 218.986 141.131 226.686 150.594 226.686V222.686ZM420.594 222.686H150.594V226.686H420.594V222.686ZM435.009 209.565C434.329 216.785 427.846 222.686 420.594 222.686V226.686C429.91 226.686 438.118 219.215 438.991 209.94L435.009 209.565ZM423.406 196.818C430.512 196.818 435.675 202.49 435.009 209.565L438.991 209.94C439.878 200.519 432.869 192.818 423.406 192.818V196.818ZM153.406 196.818H423.406V192.818H153.406V196.818ZM157.991 249.565C157.325 242.491 162.488 236.818 169.594 236.818V232.818C160.131 232.818 153.122 240.519 154.009 249.94L157.991 249.565ZM172.406 262.686C165.154 262.686 158.671 256.785 157.991 249.565L154.009 249.94C154.882 259.215 163.09 266.686 172.406 266.686V262.686ZM372.406 262.686H172.406V266.686H372.406V262.686ZM384.009 249.94C384.675 257.014 379.512 262.686 372.406 262.686V266.686C381.869 266.686 388.878 258.986 387.991 249.565L384.009 249.94ZM369.594 236.818C376.846 236.818 383.329 242.72 384.009 249.94L387.991 249.565C387.118 240.29 378.91 232.818 369.594 232.818V236.818ZM169.594 236.818H369.594V232.818H169.594V236.818Z" fill="url(#paint1_linear_102_48)" mask="url(#path-1-inside-1_102_48)"/>
</g>
<defs>
<filter id="filter0_bd_102_48" x="0" y="0" width="525" height="329.687" filterUnits="userSpaceOnUse" color-interpolation-filters="sRGB">
<feFlood flood-opacity="0" result="BackgroundImageFix"/>
<feGaussianBlur in="BackgroundImageFix" stdDeviation="7"/>
<feComposite in2="SourceAlpha" operator="in" result="effect1_backgroundBlur_102_48"/>
<feColorMatrix in="SourceAlpha" type="matrix" values="0 0 0 0 0 0 0 0 0 0 0 0 0 0 0 0 0 0 127 0" result="hardAlpha"/>
<feOffset dx="-21" dy="15"/>
<feGaussianBlur stdDeviation="25"/>
<feComposite in2="hardAlpha" operator="out"/>
<feColorMatrix type="matrix" values="0 0 0 0 0 0 0 0 0 0 0 0 0 0 0 0 0 0 0.25 0"/>
<feBlend mode="normal" in2="effect1_backgroundBlur_102_48" result="effect2_dropShadow_102_48"/>
<feBlend mode="normal" in="SourceGraphic" in2="effect2_dropShadow_102_48" result="shape"/>
</filter>
<linearGradient id="paint0_linear_102_48" x1="164.713" y1="218.202" x2="381.406" y2="-47.9476" gradientUnits="userSpaceOnUse">
<stop stop-color="#AEA1CB" stop-opacity="0.25"/>
<stop offset="1" stop-color="white"/>
</linearGradient>
<linearGradient id="paint1_linear_102_48" x1="284.119" y1="35" x2="284.119" y2="264.686" gradientUnits="userSpaceOnUse">
<stop stop-color="white"/>
<stop offset="1" stop-color="white" stop-opacity="0"/>
</linearGradient>
</defs>
</svg>
