<svg width="21" height="15" viewBox="0 0 21 15" fill="none" xmlns="http://www.w3.org/2000/svg">
<path d="M5.10366 14.39C4.02909 14.3886 2.99594 13.9753 2.21679 13.2353C1.43764 12.4953 0.971769 11.4848 0.915041 10.4117C0.858313 9.33863 1.21504 8.28463 1.91182 7.46658C2.6086 6.64854 3.59243 6.12867 4.66086 6.01397C4.34626 4.78024 4.53465 3.47206 5.18457 2.37722C5.8345 1.28238 6.89273 0.490571 8.12646 0.175971C9.3602 -0.138629 10.6684 0.0497553 11.7632 0.699681C12.858 1.34961 13.6499 2.40784 13.9645 3.64157C14.6982 3.53941 15.4451 3.58931 16.1587 3.78817C16.8724 3.98703 17.5374 4.3306 18.1126 4.79751C18.6877 5.26442 19.1607 5.84467 19.502 6.50219C19.8433 7.1597 20.0456 7.88041 20.0964 8.61947C20.1473 9.35854 20.0455 10.1002 19.7974 10.7982C19.5494 11.4963 19.1603 12.1358 18.6545 12.677C18.1487 13.2183 17.5369 13.6497 16.8572 13.9444C16.1775 14.239 15.4445 14.3907 14.7037 14.39H5.10366Z" fill="#296399"/>
</svg>
