<svg width="20" height="18" viewBox="0 0 20 18" fill="none" xmlns="http://www.w3.org/2000/svg">
<path d="M8.01628 6.79528H1.55693C1.41807 6.79528 1.28066 6.76782 1.15245 6.71449C1.02424 6.66116 0.907833 6.58302 0.809942 6.48454C0.71205 6.38606 0.63447 6.26919 0.581912 6.14066C0.529353 6.01214 0.502845 5.87449 0.503681 5.73564C0.502845 5.59678 0.529353 5.45913 0.581912 5.33061C0.63447 5.20208 0.71205 5.08521 0.809942 4.98672C0.907833 4.88824 1.02424 4.81009 1.15245 4.75676C1.28066 4.70343 1.41807 4.67599 1.55693 4.67599H8.01628C8.32988 4.676 8.63077 4.55184 8.85311 4.33069C9.07545 4.10954 9.20123 3.80937 9.2029 3.49578C9.2029 3.18108 9.0778 2.8793 8.85528 2.65677C8.63276 2.43425 8.33097 2.30923 8.01628 2.30923H6.06207C5.78103 2.30923 5.51148 2.19759 5.31276 1.99886C5.11404 1.80014 5.00232 1.53063 5.00232 1.2496C5.00232 0.96856 5.11404 0.699029 5.31276 0.500307C5.51148 0.301585 5.78103 0.189941 6.06207 0.189941L8.01628 0.189941C8.89194 0.191622 9.73128 0.540661 10.3499 1.16044C10.9685 1.78023 11.3159 2.62011 11.3159 3.49578C11.3142 4.37034 10.966 5.20861 10.3475 5.82702C9.72913 6.44544 8.89084 6.7936 8.01628 6.79528V6.79528Z" fill="#296399"/>
<path d="M15.7575 9.84729H1.55693C1.41807 9.8473 1.28066 9.81985 1.15245 9.76652C1.02424 9.71319 0.907833 9.63503 0.809942 9.53655C0.71205 9.43807 0.63447 9.3212 0.581912 9.19267C0.529353 9.06415 0.502845 8.9265 0.503681 8.78765C0.502845 8.64879 0.529353 8.51115 0.581912 8.38262C0.63447 8.2541 0.71205 8.13723 0.809942 8.03875C0.907833 7.94027 1.02424 7.86211 1.15245 7.80878C1.28066 7.75545 1.41807 7.728 1.55693 7.728H15.7575C16.1081 7.72801 16.4444 7.58916 16.6929 7.34183C16.9414 7.0945 17.0819 6.75882 17.0836 6.4082C17.0819 6.05759 16.9414 5.72191 16.6929 5.47458C16.4444 5.22725 16.1081 5.0884 15.7575 5.08841H13.9427C13.6617 5.08841 13.3922 4.97676 13.1934 4.77804C12.9947 4.57932 12.8831 4.30979 12.8831 4.02875C12.8831 3.8896 12.9104 3.75181 12.9637 3.62325C13.0169 3.49469 13.095 3.37788 13.1934 3.27948C13.2918 3.18108 13.4086 3.10302 13.5372 3.04977C13.6657 2.99651 13.8036 2.96912 13.9427 2.96912H15.7891C16.2408 2.96912 16.688 3.05807 17.1053 3.2309C17.5225 3.40373 17.9016 3.65704 18.2209 3.97639C18.5403 4.29574 18.7937 4.67487 18.9665 5.09212C19.1394 5.50937 19.2283 5.95658 19.2283 6.4082C19.2283 6.86251 19.1382 7.31232 18.9634 7.73165C18.7886 8.15098 18.5325 8.53152 18.2098 8.85129C17.8871 9.17105 17.5042 9.42372 17.0833 9.59467C16.6623 9.76562 16.2118 9.85148 15.7575 9.84729V9.84729Z" fill="#296399"/>
<path d="M10.0278 17.4615H7.34381C7.06277 17.4615 6.79322 17.3499 6.5945 17.1511C6.39578 16.9524 6.28406 16.6829 6.28406 16.4019C6.28405 16.263 6.31159 16.1255 6.36492 15.9973C6.41825 15.8691 6.49633 15.7527 6.59481 15.6548C6.69329 15.5569 6.81019 15.4795 6.93871 15.4269C7.06724 15.3743 7.20495 15.3477 7.34381 15.3486H10.0278C10.3515 15.3469 10.6613 15.2171 10.8896 14.9876C11.1179 14.7582 11.246 14.4476 11.246 14.1239C11.246 13.8008 11.1177 13.491 10.8893 13.2625C10.6608 13.034 10.3509 12.9057 10.0278 12.9057H1.55693C1.27757 12.9057 1.00964 12.7947 0.812111 12.5972C0.614578 12.3996 0.503681 12.1317 0.503681 11.8524C0.502845 11.7135 0.529353 11.5759 0.581912 11.4473C0.63447 11.3188 0.71205 11.2019 0.809942 11.1035C0.907833 11.005 1.02424 10.9268 1.15245 10.8735C1.28066 10.8202 1.41807 10.7927 1.55693 10.7927H10.0278C10.9119 10.7927 11.7598 11.1435 12.3856 11.768C13.0113 12.3926 13.3637 13.2399 13.3654 14.1239C13.3637 15.0086 13.0114 15.8566 12.3859 16.4821C11.7603 17.1077 10.9125 17.4598 10.0278 17.4615V17.4615Z" fill="#296399"/>
</svg>
